<svg viewBox="0 0 72 72" xmlns="http://www.w3.org/2000/svg"><path fill="#9B9B9A" stroke="#000" stroke-width="2" d="M50.9 27.52c0 8.28-6.72 15-15 15s-15-6.72-15-15 6.72-15 15-15 15 6.72 15 15Z"/><path fill="#FCEA2B" stroke="#000" stroke-width="2" d="M47.12 26.55c-.37-2.56-13.94-8.54-22.21-.81 0 0-.32 1.99-.32 3.13 0 7.83 5.08 14.18 11.34 14.18s11.34-6.35 11.34-14.18c0-.79.21.24-.15-2.32Z"/><circle cx="31.93" cy="26.95" r="2"/><circle cx="39.93" cy="26.95" r="2"/><path fill="none" stroke="#000" stroke-linecap="round" stroke-width="2" d="M32.93 35.2c2 1 4 1 6 0"/></svg>
